<svg width="276" height="53" viewBox="0 0 276 53" fill="none" xmlns="http://www.w3.org/2000/svg">
<rect y="12.5133" width="274" height="40" rx="15" transform="rotate(-2.61754 0 12.5133)" fill="#3065EE"/>
<path d="M21.7997 38.5448L13.1087 38.9422L12.4529 24.5971L14.6507 24.4967L15.216 36.8638L21.7092 36.5669L21.7997 38.5448ZM30.2103 38.1603L30.1354 36.5221C29.5299 37.731 28.3813 38.4442 26.8229 38.5154C24.6252 38.6159 23.1292 37.423 23.0406 35.485C22.9456 33.4072 24.5546 32.2525 27.7113 32.1082C28.3306 32.0798 28.831 32.077 29.6947 32.1376L29.6591 31.3584C29.5896 29.84 28.7312 29.0184 27.3327 29.0823C25.8542 29.1499 24.9953 30.0701 25.003 31.5513L23.1649 31.6353C23.1561 29.2532 24.7822 27.5972 27.2596 27.484C29.8769 27.3643 31.4629 28.7733 31.578 31.2907L31.8885 38.0836L30.2103 38.1603ZM24.9559 35.3374C25.0061 36.4362 25.8581 37.118 27.1568 37.0586C28.855 36.981 29.8655 35.8737 29.7915 34.2554L29.7522 33.3963C28.9685 33.332 28.4081 33.3376 27.8887 33.3614C25.8708 33.4536 24.8992 34.0987 24.9559 35.3374ZM36.3313 31.8943L36.6044 37.868L34.5865 37.9603L34.1024 27.3713L35.9804 27.2855L36.0608 29.0436C36.7262 27.832 37.8893 26.998 39.3478 26.9313C41.5255 26.8318 43.0279 28.1645 43.1439 30.7019L43.4572 37.5547L41.4393 37.647L41.1571 31.4734C41.074 29.6553 40.2282 28.6729 38.7298 28.7414C37.3512 28.8045 36.2454 30.0162 36.3313 31.8943ZM45.1357 32.1725C44.9886 28.9558 46.7226 26.5942 49.5796 26.4636C50.9981 26.3987 52.2697 27.0613 53.0683 28.3262L52.8134 22.752L54.8313 22.6598L55.4871 37.0048L53.6091 37.0906L53.5223 35.1926C52.8243 36.5659 51.5804 37.3836 50.0819 37.4521C47.2249 37.5827 45.2809 35.3492 45.1357 32.1725ZM47.2335 32.0766C47.3412 34.4341 48.6411 35.7161 50.3993 35.6357C52.1175 35.5572 53.3322 34.1002 53.2254 31.7626C53.1167 29.3851 51.7387 28.1467 50.0605 28.2234C48.3023 28.3038 47.1239 29.6791 47.2335 32.0766ZM70.7742 25.6948L66.1401 40.3818L63.9424 40.4823L65.2782 36.417L60.6248 26.1588L62.8026 26.0593L66.2484 33.9902L68.7364 25.788L70.7742 25.6948ZM76.804 36.2305C73.8072 36.3675 71.5017 34.1104 71.3583 30.9737C71.2149 27.8369 73.3048 25.3789 76.3017 25.2419C79.2985 25.1049 81.604 27.362 81.7474 30.4987C81.8908 33.6354 79.8009 36.0934 76.804 36.2305ZM76.7227 34.4523C78.4609 34.3728 79.7755 32.9113 79.6696 30.5937C79.5636 28.2761 78.1221 26.9606 76.3839 27.04C74.6457 27.1195 73.3501 28.5602 73.4561 30.8778C73.562 33.1953 74.9846 34.5318 76.7227 34.4523ZM90.4605 31.0414L90.1755 24.8079L92.1934 24.7156L92.6775 35.3046L90.7995 35.3904L90.7228 33.7122C90.2136 34.8366 89.0105 35.6724 87.572 35.7382C85.4342 35.8359 83.8982 34.6448 83.774 31.9276L83.4626 25.1148L85.4804 25.0225L85.7736 31.4358C85.8577 33.2739 86.8114 33.9911 88.13 33.9308C89.4886 33.8687 90.5363 32.6996 90.4605 31.0414ZM97.2503 29.6698L97.4978 35.0842L95.4799 35.1764L94.9958 24.5875L96.8739 24.5016L96.9762 26.7393C97.6487 25.247 99.205 24.2549 100.943 24.1755L101.039 26.2733C98.756 26.2575 97.1434 27.3323 97.2503 29.6698ZM106.205 29.3806C106.058 26.164 107.792 23.8023 110.649 23.6717C112.067 23.6069 113.339 24.2695 114.137 25.5343L113.882 19.9601L115.9 19.8679L116.556 34.2129L114.678 34.2988L114.591 32.4008C113.893 33.7741 112.649 34.5917 111.151 34.6602C108.294 34.7908 106.35 32.5573 106.205 29.3806ZM108.302 29.2847C108.41 31.6422 109.71 32.9242 111.468 32.8438C113.187 32.7653 114.401 31.3083 114.294 28.9707C114.186 26.5932 112.808 25.3549 111.129 25.4316C109.371 25.512 108.193 26.8872 108.302 29.2847ZM121.132 28.5781L121.379 33.9924L119.361 34.0847L118.877 23.4957L120.755 23.4099L120.857 25.6475C121.53 24.1553 123.086 23.1632 124.825 23.0837L124.92 25.1815C122.637 25.1658 121.025 26.2405 121.132 28.5781ZM131.237 33.7419C128.181 33.8817 126.021 31.7581 125.869 28.4216C125.726 25.2848 127.758 22.8895 130.675 22.7562C133.832 22.6118 136.047 25.0733 135.844 28.5261L127.952 28.8869C128.211 31.0373 129.347 32.2467 131.125 32.1654C132.624 32.0969 133.625 31.2303 133.902 29.8362L135.9 29.7448C135.488 32.1261 133.735 33.6278 131.237 33.7419ZM130.705 24.2764C129.086 24.3504 128.04 25.5594 127.911 27.5474L133.645 27.2853C133.456 25.3319 132.343 24.2015 130.705 24.2764ZM144.622 32.9298L144.547 31.2916C143.942 32.5005 142.793 33.2137 141.235 33.2849C139.037 33.3854 137.541 32.1925 137.452 30.2545C137.357 28.1766 138.966 27.022 142.123 26.8777C142.742 26.8493 143.243 26.8465 144.106 26.9071L144.071 26.1279C144.001 24.6095 143.143 23.7878 141.744 23.8518C140.266 23.9194 139.407 24.8396 139.415 26.3208L137.577 26.4048C137.568 24.0227 139.194 22.3667 141.671 22.2535C144.289 22.1338 145.875 23.5428 145.99 26.0602L146.3 32.8531L144.622 32.9298ZM139.368 30.1069C139.418 31.2057 140.27 31.8875 141.569 31.8281C143.267 31.7505 144.277 30.6432 144.203 29.0249L144.164 28.1658C143.38 28.1015 142.82 28.1071 142.3 28.1309C140.283 28.2231 139.311 28.8682 139.368 30.1069ZM151.016 32.6375L148.998 32.7298L148.514 22.1408L150.392 22.055L150.473 23.8131C151.136 22.5615 152.241 21.7702 153.7 21.7036C155.258 21.6323 156.473 22.3776 157.017 23.7542C157.694 22.3618 158.874 21.467 160.492 21.393C162.67 21.2935 164.134 22.648 164.249 25.1654L164.562 32.0183L162.544 32.1105L162.26 25.897C162.18 24.1388 161.353 23.1355 159.875 23.2031C158.496 23.2662 157.43 24.4761 157.511 26.2542L157.789 32.3279L155.771 32.4201L155.487 26.2066C155.407 24.4485 154.58 23.4452 153.102 23.5128C151.703 23.5767 150.657 24.7857 150.738 26.5639L151.016 32.6375ZM173.297 18.5453C173.331 19.3045 172.759 19.9113 171.899 19.9506C171.04 19.9898 170.395 19.4388 170.36 18.6796C170.324 17.9004 170.918 17.3126 171.777 17.2734C172.636 17.2341 173.261 17.7661 173.297 18.5453ZM173.454 31.6118L171.436 31.704L170.952 21.1151L172.97 21.0228L173.454 31.6118ZM178 25.4177L178.273 31.3914L176.255 31.4837L175.771 20.8948L177.649 20.8089L177.729 22.5671C178.395 21.3554 179.558 20.5214 181.016 20.4547C183.194 20.3552 184.696 21.688 184.812 24.2253L185.126 31.0782L183.108 31.1704L182.826 24.9969C182.742 23.1788 181.897 22.1964 180.398 22.2649C179.02 22.3279 177.914 23.5396 178 25.4177ZM193.651 28.7264L193.732 30.5045C193.125 30.8125 192.59 30.9371 191.951 30.9663C189.993 31.0558 188.586 30.0591 188.479 27.7215L188.22 22.0474L185.882 22.1543L185.804 20.4361L188.141 20.3292L187.998 17.1925L190.016 17.1002L190.159 20.237L193.356 20.0908L193.434 21.809L190.238 21.9552L190.476 27.1697C190.543 28.6282 191.266 29.1157 192.345 29.0664C192.824 29.0444 193.24 28.9454 193.651 28.7264ZM199.838 30.6058C196.781 30.7455 194.622 28.6219 194.469 25.2854C194.326 22.1487 196.358 19.7533 199.275 19.62C202.432 19.4757 204.647 21.9371 204.444 25.39L196.553 25.7507C196.811 27.9012 197.947 29.1105 199.726 29.0293C201.224 28.9608 202.226 28.0941 202.502 26.7L204.5 26.6087C204.088 28.99 202.335 30.4916 199.838 30.6058ZM199.305 21.1402C197.687 21.2142 196.641 22.4232 196.511 24.4112L202.245 24.1491C202.056 22.1957 200.943 21.0653 199.305 21.1402ZM208.579 24.5803L208.827 29.9946L206.809 30.0869L206.325 19.4979L208.203 19.4121L208.305 21.6497C208.978 20.1575 210.534 19.1654 212.272 19.0859L212.368 21.1837C210.085 21.1679 208.472 22.2427 208.579 24.5803ZM216.104 23.6757L216.378 29.6494L214.36 29.7417L213.876 19.1527L215.754 19.0669L215.834 20.825C216.499 19.6134 217.662 18.7794 219.121 18.7127C221.299 18.6132 222.801 19.9459 222.917 22.4833L223.23 29.3361L221.212 29.4284L220.93 23.2548C220.847 21.4367 220.001 20.4543 218.503 20.5228C217.124 20.5859 216.019 21.7976 216.104 23.6757ZM234.157 25.6733C234.252 27.7511 232.692 29.1038 229.875 29.2326C227.078 29.3604 225.357 28.0577 225.053 25.7892L226.991 25.7006C227.131 27.0156 228.227 27.7863 229.846 27.7123C231.264 27.6475 232.18 27.1051 232.135 26.1061C232.094 25.227 231.538 24.8721 230.207 24.6727L228.474 24.4315C226.499 24.1414 225.355 23.1927 225.281 21.5944C225.197 19.7363 226.755 18.3637 229.213 18.2514C231.75 18.1354 233.531 19.4154 233.81 21.5849L231.872 21.6735C231.694 20.4003 230.721 19.704 229.302 19.7689C228.024 19.8273 227.189 20.406 227.231 21.3251C227.27 22.1842 227.828 22.5591 229.118 22.7404L230.931 22.9978C233.047 23.2815 234.088 24.1549 234.157 25.6733ZM238.249 22.6633L238.522 28.637L236.504 28.7293L235.849 14.3843L237.867 14.292L238.116 19.7463C238.763 18.5755 239.807 17.767 241.266 17.7003C243.444 17.6008 244.946 18.9336 245.062 21.4709L245.375 28.3238L243.357 28.416L243.075 22.2425C242.992 20.4244 242.146 19.442 240.648 19.5105C239.269 19.5735 238.163 20.7852 238.249 22.6633ZM249.916 15.0425C249.951 15.8017 249.378 16.4085 248.519 16.4478C247.66 16.4871 247.014 15.936 246.979 15.1768C246.943 14.3976 247.537 13.8099 248.396 13.7706C249.255 13.7313 249.88 14.2633 249.916 15.0425ZM250.073 28.109L248.055 28.2012L247.571 17.6123L249.589 17.5201L250.073 28.109ZM262.742 22.2243C262.888 25.421 261.155 27.8026 258.318 27.9323C256.879 27.998 255.627 27.3345 254.81 26.0906L255.068 31.7447L253.05 31.8369L252.39 17.392L254.268 17.3061L254.357 19.2441C255.054 17.8508 256.317 17.0123 257.815 16.9438C260.632 16.815 262.595 19.0276 262.742 22.2243ZM260.644 22.3202C260.535 19.9427 259.215 18.6616 257.477 18.7411C255.799 18.8178 254.541 20.2167 254.65 22.5942C254.757 24.9318 256.118 26.231 257.816 26.1533C259.554 26.0739 260.752 24.6977 260.644 22.3202Z" fill="white"/>
</svg>
