<svg xmlns:xlink="http://www.w3.org/1999/xlink" width="20" height="20" viewBox="0 0 16 17" fill="none" xmlns="http://www.w3.org/2000/svg">
                        <path d="M13.3333 4.49999C13.3333 4.49999 11.805 3.30399 9.99996 3.16666L9.83729 3.49199C11.4693 3.89132 12.218 4.46366 13 5.16666C11.6516 4.47832 10.3203 3.83332 7.99996 3.83332C5.67963 3.83332 4.34829 4.47832 2.99996 5.16666C3.78196 4.46366 4.67263 3.82832 6.16263 3.49199L5.99996 3.16666C4.10629 3.34566 2.66663 4.49999 2.66663 4.49999C2.66663 4.49999 0.959626 6.97499 0.666626 11.8333C2.38729 13.8177 4.99996 13.8333 4.99996 13.8333L5.54629 13.105C4.61896 12.7827 3.57163 12.207 2.66663 11.1667C3.74596 11.9833 5.37496 12.8333 7.99996 12.8333C10.625 12.8333 12.254 11.9833 13.3333 11.1667C12.4283 12.207 11.381 12.7827 10.4536 13.105L11 13.8333C11 13.8333 13.6126 13.8177 15.3333 11.8333C15.0403 6.97499 13.3333 4.49999 13.3333 4.49999ZM5.83329 10.5C5.18896 10.5 4.66663 9.90299 4.66663 9.16666C4.66663 8.43032 5.18896 7.83332 5.83329 7.83332C6.47763 7.83332 6.99996 8.43032 6.99996 9.16666C6.99996 9.90299 6.47763 10.5 5.83329 10.5ZM10.1666 10.5C9.52229 10.5 8.99996 9.90299 8.99996 9.16666C8.99996 8.43032 9.52229 7.83332 10.1666 7.83332C10.811 7.83332 11.3333 8.43032 11.3333 9.16666C11.3333 9.90299 10.811 10.5 10.1666 10.5Z" fill="#536471"></path>
                      </svg>