<svg width="100" height="100" viewBox="0 0 100 100" fill="none" xmlns="http://www.w3.org/2000/svg">
<rect width="100" height="100" fill="#D9D9D9" fill-opacity="0.25"/>
<path d="M50.0815 46.5454V58.1636H65.7329C65.0456 61.9 62.9832 65.0638 59.89 67.191L69.3284 74.7456C74.8275 69.5094 78.0001 61.8184 78.0001 52.6821C78.0001 50.5549 77.8151 48.5092 77.4713 46.5458L50.0815 46.5454Z" fill="white" fill-opacity="0.25"/>
<path d="M33.7834 57.71L31.6547 59.3909L24.1196 65.4453C28.9049 75.2361 38.7127 81.9999 50.0811 81.9999C57.9331 81.9999 64.5161 79.3271 69.328 74.7454L59.8895 67.1909C57.2986 68.9909 53.9938 70.0819 50.0811 70.0819C42.5198 70.0819 36.0955 64.8183 33.7952 57.7273L33.7834 57.71Z" fill="white" fill-opacity="0.25"/>
<path d="M24.1195 38.5547C22.1367 42.5909 21 47.1455 21 51.9999C21 56.8544 22.1365 61.4094 24.1193 65.4455C24.1193 65.4726 33.7961 57.6997 33.7961 57.6997C33.2144 55.8998 32.8706 53.9908 32.8706 51.9996C32.8706 50.0085 33.2144 48.0995 33.7961 46.2995L24.1195 38.5547Z" fill="white" fill-opacity="0.25"/>
<path d="M50.0813 33.9455C54.3644 33.9455 58.1714 35.4727 61.2118 38.4181L69.5397 29.8274C64.49 24.9729 57.9336 22 50.0813 22C38.713 22 28.9047 28.7364 24.1194 38.5546L33.7955 46.3C36.0955 39.209 42.52 33.9455 50.0813 33.9455Z" fill="white" fill-opacity="0.25"/>
</svg>
