<svg width="100" height="100" viewBox="0 0 100 100" fill="none" xmlns="http://www.w3.org/2000/svg">
<rect width="100" height="100" fill="#D9D9D9" fill-opacity="0.25"/>
<path d="M47.3352 39.7912L46.1038 25.8446C46.1038 24.4659 47.7161 23.3333 49.7442 23.3333C51.7758 23.3333 53.3907 24.4659 53.3907 25.8446L52.1563 39.7912C52.0176 40.6312 50.9915 41.2796 49.7428 41.2796C48.4986 41.2796 47.4713 40.6312 47.3352 39.7912Z" fill="white" fill-opacity="0.25"/>
<path d="M42.2042 45.633C42.8281 44.551 42.7801 43.3409 42.1207 42.8019L30.6567 34.7619C29.4661 34.0722 27.6777 34.9025 26.6633 36.6611C25.6458 38.4177 25.8263 40.3807 27.0167 41.0692L39.7087 46.9795C40.5035 47.275 41.5813 46.713 42.2042 45.633Z" fill="white" fill-opacity="0.25"/>
<path d="M57.2866 45.633C57.9103 46.7136 58.9861 47.275 59.7805 46.9795L72.4747 41.0692C73.6701 40.3807 73.8417 38.4177 72.8313 36.6611C71.8122 34.9025 70.0219 34.0722 68.8333 34.7619L57.3694 42.8019C56.7137 43.3409 56.6629 44.5526 57.2866 45.633Z" fill="white" fill-opacity="0.25"/>
<path d="M47.3352 60.1844L46.1038 74.1307C46.1038 75.5114 47.7161 76.6413 49.7442 76.6413C51.7758 76.6413 53.3907 75.5114 53.3907 74.1307L52.1563 60.1844C52.0176 59.3452 50.9915 58.7001 49.7428 58.7001C48.4986 58.7001 47.4713 59.3452 47.3352 60.1844Z" fill="white" fill-opacity="0.25"/>
<path d="M57.3694 57.1813L68.8333 65.2152C70.0219 65.9029 71.8122 65.0697 72.8313 63.3168C73.8417 61.5586 73.6701 59.5944 72.4747 58.9029L59.7805 52.9996C58.9861 52.7004 57.9117 53.2615 57.2866 54.3433C56.6629 55.4227 56.7137 56.636 57.3694 57.1813Z" fill="white" fill-opacity="0.25"/>
<path d="M39.7087 52.9998L27.0167 58.9031C25.8263 59.5946 25.6458 61.5588 26.6633 63.317C27.6777 65.0697 29.4661 65.9031 30.6567 65.2153L42.1207 57.1815C42.7801 56.636 42.8279 55.4249 42.2046 54.3435C41.5809 53.2615 40.5035 52.7005 39.7087 52.9998Z" fill="white" fill-opacity="0.25"/>
</svg>
