<svg width="100" height="100" viewBox="0 0 100 100" fill="none" xmlns="http://www.w3.org/2000/svg">
<rect width="100" height="100" fill="#D9D9D9" fill-opacity="0.25"/>
<path d="M50.0815 44.5451V56.1633H65.7329C65.0456 59.8997 62.9832 63.0635 59.89 65.1907L69.3284 72.7453C74.8275 67.5091 78.0001 59.8181 78.0001 50.6818C78.0001 48.5546 77.8151 46.5089 77.4713 44.5455L50.0815 44.5451Z" fill="white" fill-opacity="0.25"/>
<path d="M33.7834 55.7098L31.6547 57.3908L24.1196 63.4452C28.9049 73.236 38.7127 79.9998 50.0811 79.9998C57.9331 79.9998 64.5161 77.327 69.328 72.7453L59.8895 65.1908C57.2986 66.9907 53.9938 68.0818 50.0811 68.0818C42.5198 68.0818 36.0955 62.8181 33.7952 55.7272L33.7834 55.7098Z" fill="white" fill-opacity="0.25"/>
<path d="M24.1195 36.5547C22.1367 40.5909 21 45.1455 21 49.9999C21 54.8544 22.1365 59.4094 24.1193 63.4455C24.1193 63.4726 33.7961 55.6997 33.7961 55.6997C33.2144 53.8998 32.8706 51.9908 32.8706 49.9996C32.8706 48.0085 33.2144 46.0995 33.7961 44.2995L24.1195 36.5547Z" fill="white" fill-opacity="0.25"/>
<path d="M50.0813 31.9455C54.3644 31.9455 58.1714 33.4727 61.2118 36.4181L69.5397 27.8274C64.49 22.9729 57.9336 20 50.0813 20C38.713 20 28.9047 26.7364 24.1194 36.5546L33.7955 44.3C36.0955 37.209 42.52 31.9455 50.0813 31.9455Z" fill="white" fill-opacity="0.25"/>
</svg>
