<svg xmlns:xlink="http://www.w3.org/1999/xlink" width="20" height="20" viewBox="0 0 16 17" fill="none" xmlns="http://www.w3.org/2000/svg">
                        <path d="M14.7638 2.59665C14.5238 2.39313 14.1469 2.36401 13.7571 2.52049H13.7565C13.3465 2.68497 2.15294 7.48625 1.69726 7.68241C1.61438 7.71121 0.890536 7.98129 0.965096 8.58289C1.03166 9.12529 1.61342 9.34993 1.68446 9.37585L4.53022 10.3502C4.71902 10.9787 5.41502 13.2974 5.56894 13.7928C5.66494 14.1016 5.82142 14.5074 6.09566 14.5909C6.3363 14.6837 6.57566 14.5989 6.73054 14.4773L8.47038 12.8635L11.279 15.0539L11.3459 15.0939C11.5366 15.1784 11.7193 15.2206 11.8937 15.2206C12.0285 15.2206 12.1577 15.1954 12.2813 15.1448C12.7021 14.972 12.8704 14.571 12.888 14.5256L14.9859 3.62097C15.1139 3.03857 14.936 2.74225 14.7638 2.59665ZM7.03998 10.74L6.07998 13.3L5.11998 10.1L12.48 4.66001L7.03998 10.74Z" fill="#536471"></path>
                      </svg>