<svg xmlns:xlink="http://www.w3.org/1999/xlink" width="20" height="20" viewBox="0 0 18 14" fill="none" xmlns="http://www.w3.org/2000/svg">
                        <path d="M17.02 2.33999C16.4287 2.60249 15.795 2.77874 15.1287 2.85874C15.8087 2.45124 16.3312 1.80624 16.5762 1.03874C15.9412 1.41499 15.235 1.68874 14.4862 1.83624C13.8862 1.19624 13.0312 0.797485 12.085 0.797485C10.2675 0.797485 8.7937 2.26999 8.7937 4.08749C8.7937 4.34499 8.8237 4.59624 8.87995 4.83749C6.14495 4.69999 3.7212 3.38999 2.09745 1.39874C1.8137 1.88624 1.65245 2.45124 1.65245 3.05374C1.65245 4.19499 2.23245 5.20249 3.1162 5.79374C2.5762 5.77624 2.0687 5.62749 1.62495 5.38124C1.62495 5.39499 1.62495 5.40874 1.62495 5.42249C1.62495 7.01749 2.75995 8.34624 4.2637 8.64999C3.9887 8.72499 3.69745 8.76499 3.39745 8.76499C3.18495 8.76499 2.9787 8.74499 2.77745 8.70499C3.19745 10.0112 4.41245 10.965 5.8512 10.9912C4.7262 11.8737 3.30745 12.3987 1.76495 12.3987C1.4987 12.3987 1.23745 12.3837 0.981201 12.3525C2.4362 13.2875 4.1662 13.8312 6.02495 13.8312C12.0775 13.8312 15.3875 8.81749 15.3875 4.46999C15.3875 4.32749 15.3837 4.18374 15.3787 4.04374C16.0212 3.57999 16.5787 2.99999 17.02 2.33999Z" fill="#536471"></path>
                      </svg>