<svg width="36" height="51" viewBox="0 0 36 51" fill="none" xmlns="http://www.w3.org/2000/svg">
<path d="M20.25 25.5H15.75C9.0601 31.6559 3 37.5826 3 43.5293C3 45.6999 3.8979 47.7706 5.4697 49.5059H30.5303C32.1021 47.7706 33 45.6999 33 43.5293C33 37.5826 26.9399 31.6559 20.25 25.5Z" fill="#F7F0EB"/>
<path d="M33 43.5293C33 37.5826 26.9399 31.6559 20.25 25.5H18V49.5059H30.5303C32.1021 47.7706 33 45.6999 33 43.5293Z" fill="#E1D3CE"/>
<path d="M18 35.959C17.1709 35.959 16.5 36.6273 16.5 37.4531V40.4414C16.5 41.2673 17.1709 41.9355 18 41.9355C18.8291 41.9355 19.5 41.2673 19.5 40.4414V37.4531C19.5 36.6273 18.8291 35.959 18 35.959Z" fill="#FABE2C"/>
<path d="M19.5 40.4414V37.4531C19.5 36.6273 18.8291 35.959 18 35.959V41.9355C18.8291 41.9355 19.5 41.2673 19.5 40.4414Z" fill="#FF9100"/>
<path d="M18 38.9473C14.436 38.9473 6.96682 43.3776 6.12012 49.3031H29.8799C29.0332 43.3776 21.564 38.9473 18 38.9473Z" fill="#FABE2C"/>
<path d="M18 38.9473V49.3031H29.8799C29.0332 43.3776 21.564 38.9473 18 38.9473Z" fill="#FF9100"/>
<path d="M30.54 1.49414H5.46C3.9 3.22724 3 5.28916 3 7.4707C3 8.36719 3.15 9.29356 3.42 10.1899L8.3316 13.3039L18 13.421L28.3059 13.5457L32.49 10.5484C32.82 9.53262 33 8.48662 33 7.4707C33 5.28916 32.1 3.22724 30.54 1.49414Z" fill="#F7F0EB"/>
<path d="M32.4901 10.5485C32.82 9.53262 33 8.48662 33 7.4707C33 5.28916 32.1 3.22724 30.54 1.49414H18V13.421L28.3059 13.5457L32.4901 10.5485Z" fill="#E1D3CE"/>
<path d="M34.5 0H1.5C0.6709 0 0 0.668279 0 1.49414C0 2.32 0.6709 2.98828 1.5 2.98828H34.5C35.3291 2.98828 36 2.32 36 1.49414C36 0.668279 35.3291 0 34.5 0Z" fill="#8C4A37"/>
<path d="M36 1.49414C36 0.668279 35.3291 0 34.5 0H18V2.98828H34.5C35.3291 2.98828 36 2.32 36 1.49414Z" fill="#663325"/>
<path d="M18 24.0059C17.1709 24.0059 16.5 24.6741 16.5 25.5V31.4766C16.5 32.3024 17.1709 32.9707 18 32.9707C18.8291 32.9707 19.5 32.3024 19.5 31.4766V25.5C19.5 24.6741 18.8291 24.0059 18 24.0059Z" fill="#FABE2C"/>
<path d="M19.5 31.4766V25.5C19.5 24.6741 18.8291 24.0059 18 24.0059V32.9707C18.8291 32.9707 19.5 32.3024 19.5 31.4766Z" fill="#FF9100"/>
<path d="M25.4999 11.9531C21.7499 11.9531 18.63 10.6084 18.5999 10.5784C18.5666 10.5651 18.3417 10.4704 17.9999 10.3425C16.8066 9.89629 13.9276 8.96484 10.4999 8.96484C7.43982 8.96484 4.79982 9.71191 3.41992 10.1899C3.65982 11.1163 4.04982 12.0427 4.55992 12.969C6.77992 17.063 11.0999 21.2565 15.7498 25.5C15.8998 25.6194 16.4698 26.1274 16.9797 26.6057C17.2553 26.8654 17.6204 27.0098 17.9998 27.0091C18.3673 27.0091 18.735 26.8745 19.0199 26.6057C19.5298 26.1274 20.0999 25.6194 20.2498 25.5C24.3898 21.7048 28.2597 17.9297 30.6299 14.2839C31.4698 13.0289 32.0999 11.8037 32.4899 10.5485C32.1898 10.5485 29.6454 11.9531 25.4999 11.9531Z" fill="#FABE2C"/>
<path d="M20.25 25.5C24.39 21.7048 28.2599 17.9297 30.6301 14.2839C31.47 13.0289 32.1001 11.8037 32.4901 10.5485C32.1899 10.5485 29.6455 11.9531 25.5 11.9531C21.75 11.9531 18.6301 10.6084 18.6 10.5784C18.5667 10.5651 18.3418 10.4704 18 10.3425V27.0091C18.3675 27.0091 18.7352 26.8745 19.0201 26.6057C19.53 26.1274 20.1 25.6194 20.25 25.5Z" fill="#FF9100"/>
<path d="M34.5 48.0117H1.5C0.6709 48.0117 0 48.68 0 49.5059C0 50.3317 0.6709 51 1.5 51H34.5C35.3291 51 36 50.3317 36 49.5059C36 48.68 35.3291 48.0117 34.5 48.0117Z" fill="#8C4A37"/>
<path d="M36 49.5059C36 48.68 35.3291 48.0117 34.5 48.0117H18V51H34.5C35.3291 51 36 50.3317 36 49.5059Z" fill="#663325"/>
</svg>
