<svg width="250" height="250" viewBox="0 0 250 250" fill="none" xmlns="http://www.w3.org/2000/svg">
<path d="M148.328 214.844V152.344H101.453V214.844H70.2026V246.094H179.578V214.844H148.328ZM117.078 3.90625L66.2964 85.9375H101.453V128.906H148.328V3.90625H117.078Z" fill="#F15A57"/>
<path d="M166.029 187.71C188.023 192.071 209.18 199.912 228.704 210.937C227.549 204.305 226.07 197.647 224.268 190.964C231.318 187.044 238.566 183.491 245.984 180.319C218.97 165.063 189.313 155.056 158.579 150.825C161.733 162.975 164.22 175.288 166.029 187.71Z" fill="#FDC069"/>
<path d="M162.136 159.249C177.626 161.692 192.836 165.659 207.546 171.092C194.501 175.628 181.952 181.48 170.092 188.557C168.74 188.261 167.387 187.979 166.031 187.71C165.092 178.232 163.794 168.745 162.136 159.249Z" fill="#FB8656"/>
<path d="M83.8613 187.71C61.8676 192.071 40.7102 199.912 21.1865 210.938C22.3408 204.305 23.8195 197.647 25.6226 190.964C18.5721 187.045 11.3236 183.493 3.90625 180.322C30.9207 165.066 60.5774 155.059 91.312 150.828C88.1571 162.977 85.6698 175.289 83.8613 187.71Z" fill="#FDC069"/>
<path d="M207.545 171.094C154.236 151.416 95.6539 151.416 42.3452 171.094C37.8351 158.878 33.3245 146.662 28.8135 134.447C90.8555 111.546 159.035 111.546 221.077 134.447C216.566 146.662 212.055 158.877 207.545 171.094Z" fill="#FDC069"/>
<path d="M87.7544 159.249C72.2647 161.692 57.0542 165.659 42.3442 171.092C55.3892 175.628 67.9387 181.48 79.7988 188.557C81.1504 188.261 82.5042 187.979 83.8604 187.71C84.7985 178.232 86.0965 168.745 87.7544 159.249Z" fill="#FB8656"/>
<path d="M31.1401 11.7188L38.0454 24.3447L50.6714 31.25L38.0454 38.1553L31.1401 50.7812L24.2349 38.1553L11.6089 31.25L24.2349 24.3447L31.1401 11.7188Z" fill="#FDC069"/>
<path d="M218.64 74.3027L225.545 86.9287L238.171 93.834L225.545 100.739L218.64 113.365L211.735 100.739L199.109 93.834L211.735 86.9287L218.64 74.3027Z" fill="#FFFEFA"/>
<path d="M218.64 74.3027L225.545 86.9287L238.171 93.834L225.545 100.739L218.64 113.365L211.735 100.739L199.109 93.834L211.735 86.9287L218.64 74.3027Z" fill="#FDC069"/>
</svg>
