<svg width="248" height="42" viewBox="0 0 248 42" fill="none" xmlns="http://www.w3.org/2000/svg">
<path d="M11.2 41H0.4V0.799999H19.66C29.02 0.799999 35.74 4.52 35.74 13.4C35.74 21.14 30.52 24.56 23.68 25.16C27.82 26.18 29.62 28.76 31.66 31.94L37.42 41H25.12L18.46 30.26C16.84 27.62 15.34 26.6 12.04 26.6H11.2V41ZM19.78 10.4H11.2V17.96H19.78C22.84 17.96 24.34 16.64 24.34 14.18C24.34 11.66 22.84 10.4 19.78 10.4ZM52.0488 41.6C45.2088 41.6 39.2088 39.38 36.2688 37.1L40.2888 29.3C43.7088 31.64 48.8088 33.68 52.3488 33.68C53.9688 33.68 54.7488 33.32 54.7488 32.48C54.7488 31.58 53.7288 31.16 50.7288 30.38L46.6488 29.3C40.5888 27.68 37.2288 25.46 37.2288 20.48C37.2288 14.36 42.3288 10.82 50.1888 10.82C56.7288 10.82 61.4688 13.28 63.8088 15.02L60.1488 22.7C56.3088 19.88 52.1088 18.68 49.1688 18.68C47.6688 18.68 46.9488 19.16 46.9488 19.88C46.9488 20.78 47.7888 21.2 51.6288 22.34L54.6888 23.24C61.1088 25.1 64.3488 27.5 64.3488 32.3C64.3488 37.88 59.6688 41.6 52.0488 41.6ZM77.2375 41H66.4375V30.74H77.2375V41ZM107.096 41.6C94.8564 41.6 89.9964 33.44 89.9964 21.62V20.54C89.9964 8 96.0564 0.2 108.956 0.2C114.356 0.2 119.216 1.82 122.216 3.86L117.776 14.72C114.896 12.14 112.196 11.12 108.836 11.12C104.396 11.12 102.176 13.28 102.176 19.1V21.62C103.436 17.78 106.796 15.32 111.896 15.32C119.756 15.32 123.536 20.24 123.536 27.44C123.536 36.26 116.876 41.6 107.096 41.6ZM106.676 31.34C110.156 31.34 111.716 29.24 111.716 26.36C111.716 23.72 110.156 21.44 106.676 21.44C103.316 21.44 101.996 23.72 101.996 26.36C101.996 29.24 103.316 31.34 106.676 31.34ZM145.492 41.48C133.732 41.48 126.592 33.02 126.592 20.84C126.592 8.66 133.732 0.2 145.492 0.2C157.252 0.2 164.392 8.66 164.392 20.84C164.392 33.02 157.252 41.48 145.492 41.48ZM145.492 30.98C150.532 30.98 152.992 27.26 152.992 20.84C152.992 14.42 150.532 10.7 145.492 10.7C140.452 10.7 137.992 14.42 137.992 20.84C137.992 27.26 140.452 30.98 145.492 30.98ZM187.021 41.48C175.261 41.48 168.121 33.02 168.121 20.84C168.121 8.66 175.261 0.2 187.021 0.2C198.781 0.2 205.921 8.66 205.921 20.84C205.921 33.02 198.781 41.48 187.021 41.48ZM187.021 30.98C192.061 30.98 194.521 27.26 194.521 20.84C194.521 14.42 192.061 10.7 187.021 10.7C181.981 10.7 179.521 14.42 179.521 20.84C179.521 27.26 181.981 30.98 187.021 30.98ZM228.55 41.48C216.79 41.48 209.65 33.02 209.65 20.84C209.65 8.66 216.79 0.2 228.55 0.2C240.31 0.2 247.45 8.66 247.45 20.84C247.45 33.02 240.31 41.48 228.55 41.48ZM228.55 30.98C233.59 30.98 236.05 27.26 236.05 20.84C236.05 14.42 233.59 10.7 228.55 10.7C223.51 10.7 221.05 14.42 221.05 20.84C221.05 27.26 223.51 30.98 228.55 30.98Z" fill="#8980F5"/>
</svg>
