<svg xmlns:xlink="http://www.w3.org/1999/xlink" width="17" height="16" viewBox="0 0 17 16" fill="none" xmlns="http://www.w3.org/2000/svg" class="fill-rebrand-gray-800 group-hover:fill-white"><g clip-path="url(#clip0_472_92)" fill="#141414"><path fill-rule="evenodd" clip-rule="evenodd" d="M8.30917 0C3.89856 0 0.333008 3.66667 0.333008 8.20283C0.333008 11.8288 2.61758 14.8982 5.78689 15.9845C6.18313 16.0662 6.32827 15.808 6.32827 15.5908C6.32827 15.4007 6.31521 14.7488 6.31521 14.0697C4.09644 14.5587 3.6344 13.0918 3.6344 13.0918C3.27782 12.1412 2.7495 11.8968 2.7495 11.8968C2.02329 11.3943 2.8024 11.3943 2.8024 11.3943C3.60795 11.4487 4.03064 12.2363 4.03064 12.2363C4.74362 13.4857 5.89252 13.1327 6.35472 12.9153C6.42068 12.3857 6.63211 12.019 6.8566 11.8153C5.08697 11.6252 3.22509 10.919 3.22509 7.76817C3.22509 6.87183 3.54182 6.1385 4.0437 5.56817C3.96452 5.3645 3.68713 4.52233 4.12305 3.39517C4.12305 3.39517 4.79652 3.17783 6.31505 4.23717C6.96519 4.05761 7.63566 3.96627 8.30917 3.9655C8.98264 3.9655 9.66917 4.06067 10.3031 4.23717C11.8218 3.17783 12.4953 3.39517 12.4953 3.39517C12.9312 4.52233 12.6537 5.3645 12.5745 5.56817C13.0896 6.1385 13.3933 6.87183 13.3933 7.76817C13.3933 10.919 11.5314 11.6115 9.74852 11.8153C10.0391 12.0733 10.2899 12.5622 10.2899 13.3363C10.2899 14.4363 10.2768 15.3192 10.2768 15.5907C10.2768 15.808 10.4222 16.0662 10.8182 15.9847C13.9875 14.898 16.2721 11.8288 16.2721 8.20283C16.2852 3.66667 12.7066 0 8.30917 0Z" fill="#141414"></path></g><defs><clipPath id="clip0_472_92"><rect width="16" height="16" fill="white" transform="translate(0.333008)"></rect></clipPath></defs></svg>